<svg xmlns="http://www.w3.org/2000/svg" viewBox="0 0 32 32" fill="none">
  <rect width="32" height="32" rx="7" fill="#0c4a6e"/>
  <g transform="translate(2 2) scale(0.233)" stroke="#fff" stroke-width="2.5" stroke-linecap="round" stroke-linejoin="round" fill="none">
    <path d="M82 32c-6-14-20-22-36-20C24 14 10 30 8 48c-1 8 1 16 6 23 3 4 5 9 5 15v8h10v-5c0-7-2-13-7-18 7-1 13-5 17-11 5-7 7-16 6-26-1-11-8-21-18-26 8 4 14 12 15 22 1 13-5 25-16 31"/>
    <circle cx="48" cy="44" r="3.5" fill="#5eead4"/><circle cx="62" cy="38" r="3" fill="#5eead4"/><circle cx="72" cy="50" r="3" fill="#5eead4"/>
    <path d="M48 44l14-6M62 38l10 12M48 44l8 12"/>
  </g>
</svg>
